<?xml version="1.0" encoding="UTF-8" standalone="no"?>
<!-- Created with Inkscape (http://www.inkscape.org/) -->

<svg
   width="210mm"
   height="210mm"
   viewBox="0 40 210 210"
   version="1.1"
   id="svg1"
   xml:space="preserve"
   inkscape:version="1.4.2 (f4327f4, 2025-05-13)"
   sodipodi:docname="logo4.svg"
   inkscape:export-filename="logo4-512.png"
   inkscape:export-xdpi="61.927616"
   inkscape:export-ydpi="61.927616"
   xmlns:inkscape="http://www.inkscape.org/namespaces/inkscape"
   xmlns:sodipodi="http://sodipodi.sourceforge.net/DTD/sodipodi-0.dtd"
   xmlns="http://www.w3.org/2000/svg"
   xmlns:svg="http://www.w3.org/2000/svg"><sodipodi:namedview
     id="namedview1"
     pagecolor="#505050"
     bordercolor="#eeeeee"
     borderopacity="1"
     inkscape:showpageshadow="0"
     inkscape:pageopacity="0"
     inkscape:pagecheckerboard="0"
     inkscape:deskcolor="#505050"
     inkscape:document-units="mm"
     inkscape:zoom="0.78992992"
     inkscape:cx="338.63764"
     inkscape:cy="471.56082"
     inkscape:window-width="1600"
     inkscape:window-height="829"
     inkscape:window-x="-8"
     inkscape:window-y="-8"
     inkscape:window-maximized="1"
     inkscape:current-layer="layer1" /><defs
     id="defs1"><clipPath
       clipPathUnits="userSpaceOnUse"
       id="clipPath3"><ellipse
         style="display:inline;fill:#ffffff;stroke-width:0.249742"
         id="ellipse4"
         cx="106.00607"
         cy="159.43069"
         rx="53.913002"
         ry="48.198563"
         inkscape:label="cab col"
         transform="matrix(0.99942263,-0.03397668,0,1,0,0)" /></clipPath><clipPath
       clipPathUnits="userSpaceOnUse"
       id="clipPath5"><ellipse
         style="display:inline;fill:#ffffff;stroke-width:0.249742"
         id="ellipse6"
         cx="106.00607"
         cy="159.43069"
         rx="53.913002"
         ry="48.198563"
         inkscape:label="cab col"
         transform="matrix(0.99942263,-0.03397668,0,1,0,0)" /></clipPath><clipPath
       clipPathUnits="userSpaceOnUse"
       id="clipPath18"><ellipse
         style="fill:#feb3ca;fill-opacity:1;stroke-width:0.600353;stroke-dasharray:none"
         id="ellipse18"
         cx="113.55669"
         cy="174.37466"
         rx="6.3076634"
         ry="5.7364926" /></clipPath></defs><g
     inkscape:groupmode="layer"
     id="layer6"
     inkscape:label="oreja izq"
     style="display:inline"><path
       style="display:inline;opacity:1;fill:#191d2a;fill-opacity:1;stroke-width:0.401373"
       d="m 87.803342,89.370832 c 2.338566,-8.383512 13.858198,-24.684769 28.928978,-22.635468 15.07079,2.049301 21.1099,15.896455 28.82678,37.237386 7.7169,21.34092 -36.13464,1.5808 -36.13464,1.5808 0,0 -22.173909,-4.70127 -21.621118,-16.182718 z"
       id="path9"
       inkscape:label="ore izq bor" /><path
       d="M 145.60701,104.38642 A 77.986267,83.276382 72.322485 0 0 91.354823,87.042431 77.986267,83.276382 72.322485 0 0 88.640278,87.182289 c -0.354579,0.862632 -0.638648,1.68032 -0.848908,2.434041 -0.552791,11.48143 21.62105,16.18307 21.62105,16.18307 0,0 43.62068,19.65605 36.19459,-1.41294 z"
       style="display:inline;fill:#191d2a;stroke-width:0.401373"
       id="path111" /><path
       style="display:inline;fill:#ffc070;fill-opacity:1;stroke-width:0.380913"
       d="m 89.34547,90.992724 c 2.197029,-8.037014 13.01948,-23.664477 27.17817,-21.69988 14.1587,1.964598 19.83233,15.239387 27.08218,35.698246 7.24986,20.45883 -33.94776,1.51546 -33.94776,1.51546 0,0 -20.831932,-4.50697 -20.31259,-15.513826 z"
       id="path9-7"
       inkscape:label="ore izq nar" /><path
       style="display:inline;fill:#f881aa;fill-opacity:1;stroke-width:0.321604;stroke-dasharray:none"
       d="m 93.936946,93.00403 c 1.862201,-6.749978 11.035234,-19.874814 23.036024,-18.224837 12.00084,1.649996 16.80975,12.798929 22.95468,29.981477 6.14492,17.18254 -28.77388,1.27277 -28.77388,1.27277 0,0 -17.657007,-3.78522 -17.216824,-13.02941 z"
       id="path9-7-9"
       inkscape:label="ore izq ros" /><path
       d="m 144.37939,101.01583 a 77.986267,83.276382 72.322485 0 0 -53.596821,-16.722065 77.986267,83.276382 72.322485 0 0 -0.791451,0.03178 c -0.525071,0.987183 -0.976925,1.947103 -1.35084,2.856791 a 77.986267,83.276382 72.322485 0 1 2.714545,-0.139858 77.986267,83.276382 72.322485 0 1 54.252187,17.344002 c -0.0196,-0.0557 -0.04,-0.11202 -0.0604,-0.16829 -0.39314,-1.08721 -0.78131,-2.15458 -1.16715,-3.20231 z"
       style="display:inline;opacity:0.19;fill:#191d2a;stroke-width:0.394931"
       id="path110" /></g><g
     inkscape:groupmode="layer"
     id="layer6-8"
     inkscape:label="oreja der"
     transform="matrix(-0.61891431,0.57709757,0.51936286,0.68771562,78.642169,-16.543785)"
     style="display:inline"><path
       style="display:inline;fill:#191d2a;fill-opacity:1;stroke-width:0.401372"
       d="m 123.18044,72.468305 c 2.12181,-8.053532 13.43741,-23.454088 29.04896,-20.904163 15.61154,2.549906 22.31742,16.219982 31.0123,37.228906 8.69491,21.008902 -37.20679,0.192205 -37.20679,0.192205 0,0 -23.0278,-5.38896 -22.85447,-16.516948 z"
       id="path9-6-8"
       inkscape:label="ore izq bor" /><path
       style="display:inline;fill:#ffffff;fill-opacity:1;stroke-width:0.380913"
       d="m 124.618,75.415217 c 1.98785,-7.722341 12.60781,-22.494537 27.27588,-20.06077 14.66808,2.43377 20.9773,15.534498 29.16013,35.669562 8.18283,20.135031 -34.95399,0.210025 -34.95399,0.210025 0,0 -21.63725,-5.150396 -21.48202,-15.818817 z"
       id="path9-7-5"
       inkscape:label="ore izq bor" /><path
       style="display:inline;fill:#f881aa;fill-opacity:1;stroke-width:0.321604;stroke-dasharray:none"
       d="m 127.63638,77.411968 c 1.68704,-6.485066 10.69262,-18.888475 23.12464,-16.840392 12.43206,2.048104 17.77615,13.052466 24.70639,29.965167 6.93024,16.912667 -29.62715,0.166627 -29.62715,0.166627 0,0 -18.33839,-4.331603 -18.20388,-13.291402 z"
       id="path9-7-9-0"
       inkscape:label="ore izq bor" /><path
       d="m 123.5237,73.706104 c -0.0727,-0.451673 -0.10737,-0.913158 -0.10007,-1.385473 0.13047,-0.495155 0.29597,-1.018234 0.49479,-1.563056 a 87.197753,102.67886 56.691426 0 1 58.21345,14.643874 c 0.35349,0.839699 0.70958,1.691992 1.06875,2.557356 A 87.197753,102.67886 56.691426 0 0 123.52365,73.706104 Z"
       style="display:inline;opacity:0.19;fill:#191d2a;stroke-width:0.401373"
       id="path106" /></g><g
     inkscape:groupmode="layer"
     id="layer2"
     inkscape:label="cabeza"
     style="display:inline"><path
       d="M 172.88165,149.60406 A 77.986267,83.276381 72.322495 0 0 91.354823,87.042431 77.986267,83.276381 72.322495 0 0 8.5519783,168.4553 77.986267,83.276381 72.322495 0 0 9.2557471,178.60203 77.986267,83.276381 72.322495 0 0 90.782569,241.15797 77.986267,83.276381 72.322495 0 0 173.58542,159.7451 77.986267,83.276381 72.322495 0 0 172.88165,149.60406 Z"
       style="display:inline;fill:#191d2a;stroke-width:0.394931"
       id="path87" /><ellipse
       style="display:inline;fill:#ffffff;stroke-width:0.378876"
       id="path1-5"
       cx="91.8741"
       cy="169.36952"
       rx="78.871597"
       ry="75.826042"
       inkscape:label="cab col"
       transform="matrix(0.99933228,-0.03653744,0,1,0,0)" /><ellipse
       style="fill:#ffc070;fill-opacity:1;stroke-width:0.276759"
       id="path2"
       cx="133.93419"
       cy="113.92105"
       rx="39.907898"
       ry="30.315788"
       inkscape:label="man nar"
       clip-path="url(#clipPath5)"
       transform="matrix(1.46281,0,0,1.5732014,-63.164421,-79.137656)" /><ellipse
       style="display:inline;opacity:1;fill:#191d2a;fill-opacity:1;stroke-width:0.386387"
       id="path3"
       cx="60.276318"
       cy="130.14476"
       rx="33.039474"
       ry="31.38158"
       inkscape:label="man neg"
       clip-path="url(#clipPath3)"
       transform="matrix(1.46281,0,0,1.5732014,-63.582629,-79.401125)" /><ellipse
       style="display:inline;fill:#191d2a;fill-opacity:1;stroke-width:0.290835"
       id="path6-1"
       cx="82.267212"
       cy="149.89998"
       rx="11.786535"
       ry="13.259745"
       transform="matrix(0.94665967,0.32223511,-0.12469904,0.99219461,0,0)"
       inkscape:label="ojo der" /><ellipse
       style="display:inline;fill:#191d2a;fill-opacity:1;stroke-width:0.290835"
       id="path6-1-1"
       cx="143.93178"
       cy="103.01115"
       rx="11.786535"
       ry="13.259745"
       transform="matrix(0.94665967,0.32223511,-0.12469904,0.99219461,0,0)"
       inkscape:label="ojo izq" /><ellipse
       style="fill:#ffffff;fill-opacity:1;stroke-width:0.381114"
       id="path8"
       cx="104.56005"
       cy="143.09215"
       rx="4.4275899"
       ry="5.4561381"
       transform="matrix(1,0,0.14168113,0.98991235,0,0)"
       inkscape:label="ojo bri der" /><ellipse
       style="display:inline;fill:#ffffff;fill-opacity:1;stroke-width:0.381114"
       id="path8-4"
       cx="36.530556"
       cy="169.75488"
       rx="4.4275899"
       ry="5.4561381"
       transform="matrix(1,0,0.14168113,0.98991235,0,0)"
       inkscape:label="ojo bri izq" /></g><g
     inkscape:groupmode="layer"
     id="layer5"
     inkscape:label="boquita"
     style="display:inline"><path
       style="display:inline;fill:#191d2a;fill-opacity:1;stroke-width:0.401373"
       d="m 89.362377,187.36471 c 0.08661,5.58901 12.992073,17.79168 16.543233,16.39443 3.55116,-1.39725 4.93699,-7.73148 3.55116,-24.49849 -1.38582,-16.76702 -20.094393,8.10406 -20.094393,8.10406 z"
       id="path7"
       inkscape:label="boc bor" /><path
       style="display:inline;fill:#f881aa;fill-opacity:1;stroke-width:0.384147"
       d="m 90.263806,186.17043 c 0.07931,5.58902 11.900824,17.79168 15.153714,16.39442 3.25289,-1.39725 4.5223,-7.73146 3.25289,-24.49847 -1.26943,-16.76702 -18.406604,8.10405 -18.406604,8.10405 z"
       id="path7-3"
       inkscape:label="boc ros" /><path
       style="display:inline;fill:#feb3ca;fill-opacity:1;stroke-width:0.253228"
       d="m 104.84912,168.67155 c 0.0542,3.55264 8.13559,11.30922 10.35932,10.42106 2.22373,-0.88816 3.09152,-4.91448 2.22373,-15.57237 -0.8678,-10.6579 -12.58305,5.15131 -12.58305,5.15131 z"
       id="path7-3-9"
       inkscape:label="boc ros"
       clip-path="url(#clipPath18)"
       transform="matrix(1.46281,0,0,1.5732014,-63.164421,-79.137656)" /><ellipse
       style="display:inline;fill:#191d2a;fill-opacity:1;stroke-width:0.40414"
       id="path6"
       cx="45.775082"
       cy="200.30222"
       rx="6.8515544"
       ry="6.6724601"
       transform="matrix(0.95754023,-0.28829968,0.24032739,0.97069189,0,0)"
       inkscape:label="mej bor der" /><ellipse
       style="display:inline;fill:#191d2a;fill-opacity:1;stroke-width:0.40414"
       id="path6-7"
       cx="58.195782"
       cy="198.62373"
       rx="6.8515544"
       ry="6.6724601"
       transform="matrix(0.95754023,-0.28829968,0.24032739,0.97069189,0,0)"
       inkscape:label="mej bor izq" /><ellipse
       style="display:inline;fill:#ffffff;fill-opacity:1;stroke-width:0.40414"
       id="path6-2"
       cx="45.453941"
       cy="198.25572"
       rx="6.8515544"
       ry="6.6724601"
       transform="matrix(0.95754023,-0.28829968,0.24032739,0.97069189,0,0)"
       inkscape:label="mej der" /><ellipse
       style="display:inline;fill:#ffffff;fill-opacity:1;stroke-width:0.40414"
       id="path6-2-2"
       cx="57.729382"
       cy="196.28088"
       rx="6.8515544"
       ry="6.6724601"
       transform="matrix(0.95754023,-0.28829968,0.24032739,0.97069189,0,0)"
       inkscape:label="mej izq" /></g><g
     inkscape:groupmode="layer"
     id="layer4"
     inkscape:label="cachete"><path
       d="m 145.74762,147.40333 a 12.690915,16.340972 50.949649 0 0 -18.18838,14.25225 12.690915,16.340972 50.949649 0 0 0.0559,6.89484 18.041473,21.756765 42.903547 0 1 0.13223,-0.81461 18.041473,21.756765 42.903547 0 1 21.03445,-20.0016 12.690915,16.340972 50.949649 0 0 -3.03419,-0.33088 z"
       style="fill:#191d2a;stroke-width:0.448133"
       id="path71" /><path
       d="m 148.78191,147.73421 a 18.041473,21.756765 42.903547 0 0 -21.03445,20.0016 18.041473,21.756765 42.903547 0 0 -0.13224,0.81461 12.690915,16.340972 50.949649 0 0 10.85738,7.3566 12.690915,16.340972 50.949649 0 0 18.18839,-14.25144 12.690915,16.340972 50.949649 0 0 -7.87905,-13.92137 z"
       style="fill:#ffffff;stroke-width:0.611159"
       id="path73" /><path
       d="m 77.90383,218.07438 a 30.160843,15.75026 3.017996 0 1 -2.913337,1.32189 30.160843,15.75026 3.017996 0 1 -35.878622,-0.44388 22.664009,11.073859 5.3664514 0 0 31.611392,3.74455 22.664009,11.073859 5.3664514 0 0 7.180567,-4.62256 z"
       style="display:inline;fill:#191d2a;stroke-width:0.492991"
       id="path70"
       inkscape:label="cache borde" /></g><g
     inkscape:groupmode="layer"
     id="layer7"
     inkscape:label="brazo izq"
     transform="translate(4.1868165,3.5169258)"
     style="display:inline"><path
       style="fill:#191d2a;fill-opacity:1;stroke-width:0.321604;stroke-dasharray:none"
       d="m 128.03345,206.24571 c 1.73228,-32.22993 15.93692,-46.20243 19.74794,-52.35035 3.811,-6.1479 0,-9.68759 5.37005,-11.17801 5.37005,-1.4904 3.95546,0.16018 5.54783,2.26792 1.59237,2.10774 0.51514,3.04164 4.93243,0.0609 4.4173,-2.9808 3.20471,-3.72601 7.01571,-3.63287 3.81101,0.0931 9.26767,5.30956 11.69286,8.29037 2.42518,2.9808 3.89762,7.35885 4.4173,10.9917 0.51969,3.63286 0.17322,10.15337 -0.51968,12.38897 -0.69291,2.23561 -9.4409,20.77247 -14.89756,26.45462 -5.45666,5.68214 -11.9527,15.18347 -14.89757,20.86562 -2.94486,5.68215 -2.68503,11.92322 -2.68503,13.32047 0,1.39724 -25.72428,-27.47929 -25.72428,-27.47929 z"
       id="path11"
       inkscape:label="braz bor izq" /><path
       style="fill:#ffffff;fill-opacity:1;stroke-width:0.28704;stroke-dasharray:none"
       d="m 130.85863,203.31716 c 2.32933,-29.10984 15.17322,-41.33152 18.6791,-46.78128 3.5059,-5.44971 0.24213,-8.76519 5.00297,-9.95471 4.76083,-1.18957 3.47528,0.26206 4.82325,2.21619 1.34801,1.95418 0.37711,2.76726 4.33714,0.20118 3.96003,-2.56624 2.91203,-3.27638 6.26194,-3.07929 3.34988,0.19707 8.01923,5.07831 10.07798,7.84706 2.05869,2.76876 3.24445,6.77353 3.61076,10.07585 0.3663,3.30235 -0.10134,9.19173 -0.7668,11.19396 -0.66536,2.00225 -8.82358,18.51518 -13.76538,23.49478 -4.94178,4.97961 -10.89326,13.38397 -13.62565,18.43795 -2.73237,5.05396 -2.65983,10.70848 -2.69477,11.97268 -0.035,1.26418 -21.94056,-25.62423 -21.94056,-25.62423 z"
       id="path11-6"
       inkscape:label="braz izq" /><ellipse
       style="fill:#feb3ca;fill-opacity:1;stroke-width:0.411985;stroke-dasharray:none"
       id="path12"
       cx="157.75172"
       cy="156.66396"
       rx="4.1574602"
       ry="4.0986032" /><ellipse
       style="fill:#feb3ca;fill-opacity:1;stroke-width:0.411985;stroke-dasharray:none"
       id="path12-3"
       cx="168.50761"
       cy="157.53514"
       rx="4.1574602"
       ry="4.0986032" /><ellipse
       style="fill:#feb3ca;fill-opacity:1;stroke-width:0.411985;stroke-dasharray:none"
       id="path12-3-6"
       cx="175.41185"
       cy="165.88933"
       rx="4.1574602"
       ry="4.0986032" /><ellipse
       style="fill:#feb3ca;fill-opacity:1;stroke-width:1.06137;stroke-dasharray:none"
       id="path12-3-6-9"
       cx="159.65152"
       cy="174.33696"
       rx="10.696798"
       ry="10.572535" /><ellipse
       style="fill:#f881aa;fill-opacity:1;stroke-width:0.910735;stroke-dasharray:none"
       id="path12-3-6-9-8"
       cx="159.70753"
       cy="174.11873"
       rx="9.2269135"
       ry="9.0246572" /><ellipse
       style="display:inline;fill:#feb3ca;fill-opacity:1;stroke-width:0.411985;stroke-dasharray:none"
       id="path12-3-6-7"
       cx="148.35081"
       cy="177.6145"
       rx="4.1574602"
       ry="4.0986032" /><ellipse
       style="display:inline;fill:#feb3ca;fill-opacity:1;stroke-width:0.411985;stroke-dasharray:none"
       id="path12-3-6-7-4"
       cx="160.30995"
       cy="186.09631"
       rx="4.1574602"
       ry="4.0986032" /><ellipse
       style="fill:#feb3ca;fill-opacity:1;stroke-width:0.781628;stroke-dasharray:none"
       id="path12-3-6-9-7"
       cx="67.048218"
       cy="-233.8452"
       rx="6.7207022"
       ry="9.1261368"
       transform="matrix(-0.61958929,0.78492618,-0.83346645,-0.55257007,0,0)" /><ellipse
       style="fill:#ffffff;fill-opacity:1;stroke-width:0.781628;stroke-dasharray:none"
       id="path12-3-6-9-7-1"
       cx="68.961418"
       cy="-233.75595"
       rx="6.7207022"
       ry="9.1261368"
       transform="matrix(-0.61958929,0.78492618,-0.83346645,-0.55257007,0,0)" /><ellipse
       style="fill:#ffffff;fill-opacity:1;stroke-width:0.781628;stroke-dasharray:none"
       id="path12-3-6-9-7-1-4"
       cx="70.367653"
       cy="-244.32372"
       rx="6.7207022"
       ry="9.1261368"
       transform="matrix(-0.61958929,0.78492618,-0.83346645,-0.55257007,0,0)"
       inkscape:transform-center-x="-10.39365"
       inkscape:transform-center-y="-3.912307" /><ellipse
       style="fill:#ffffff;fill-opacity:1;stroke-width:0.781545;stroke-dasharray:none"
       id="path12-3-6-9-7-1-4-1"
       cx="13.941917"
       cy="-235.20561"
       rx="6.6054602"
       ry="9.28339"
       transform="matrix(-0.78874947,0.61471479,-0.67591539,-0.73697923,0,0)"
       inkscape:transform-center-x="-10.960272"
       inkscape:transform-center-y="-1.1450808" /><ellipse
       style="fill:#f881aa;fill-opacity:1;stroke-width:0.333952;stroke-dasharray:none"
       id="path12-5"
       cx="157.8262"
       cy="156.61481"
       rx="3.4531405"
       ry="3.2423317" /><ellipse
       style="fill:#f881aa;fill-opacity:1;stroke-width:0.333952;stroke-dasharray:none"
       id="path12-5-5"
       cx="175.50087"
       cy="165.84993"
       rx="3.4531405"
       ry="3.2423317" /><ellipse
       style="fill:#f881aa;fill-opacity:1;stroke-width:0.333952;stroke-dasharray:none"
       id="path12-5-7"
       cx="168.60452"
       cy="157.49397"
       rx="3.4531405"
       ry="3.2423317" /></g><g
     inkscape:groupmode="layer"
     id="layer8"
     inkscape:label="cuerpito"
     style="display:inline"><path
       style="fill:#191d2a;fill-opacity:1;stroke-width:0.378577;stroke-dasharray:none"
       d="m 158.39702,244.0931 c 0,0 -2.05865,-8.60214 1.87153,-19.11587 3.93017,-10.51372 -21.70956,-6.92952 -21.70956,-6.92952 z"
       id="path16" /><path
       style="display:inline;fill:#ffffff;fill-opacity:1;stroke-width:0.426522;stroke-dasharray:none"
       d="m 157.30593,241.96409 c 0,0 -2.36498,-9.50468 2.15,-21.12153 4.51499,-11.61682 -24.93992,-7.65655 -24.93992,-7.65655 z"
       id="path16-9" /><path
       style="fill:#ffffff;fill-opacity:1;stroke-width:0.321604;stroke-dasharray:none"
       d="m 49.771664,246.50904 c 108.281456,-0.52693 108.036476,5.53284 106.811566,-3.68855 -1.22489,-9.2214 -4.40965,-43.20879 -22.53821,-37.14902 -18.12858,6.05976 -84.273356,40.83757 -84.273356,40.83757 z"
       id="path17" /><rect
       style="display:inline;fill:#191d2a;fill-opacity:1;stroke-width:0.263418;stroke-dasharray:none"
       id="rect17"
       width="209.60527"
       height="19.747814"
       x="0.23684159"
       y="230.12062" /></g><g
     inkscape:groupmode="layer"
     id="layer10"
     inkscape:label="brazo der"
     style="display:inline;opacity:1"><path
       style="display:inline;fill:#191d2a;fill-opacity:1;stroke-width:0.321604;stroke-dasharray:none"
       d="m 12.189536,236.6411 c -4.5039148,-17.32592 10.740106,-23.66011 23.212483,-23.47381 12.472381,0.1863 23.732169,8.0109 23.905394,16.76701 0.17323,8.7561 -5.716504,14.71772 -21.999889,14.71772 -16.283384,0 -21.133754,-2.0493 -25.117988,-8.01092 z"
       id="path15"
       inkscape:label="bra der bor" /><path
       style="display:inline;fill:#ffffff;fill-opacity:1;stroke-width:0.248659;stroke-dasharray:none"
       d="m 17.432072,233.82598 c -3.527221,-13.22564 8.411062,-18.0608 18.178752,-17.91859 9.767681,0.14223 18.585734,6.11508 18.721396,12.79898 0.135661,6.68391 -4.476852,11.23469 -17.229112,11.23469 -12.752258,0 -16.550804,-1.56432 -19.671036,-6.11508 z"
       id="path15-7"
       inkscape:label="bra der" /><path
       d="m 54.130657,227.14391 c -0.137826,6.36869 -4.845804,10.66054 -17.229112,10.66054 -12.752259,0 -16.550525,-1.56445 -19.670758,-6.1152 -0.157714,-0.59136 -0.285048,-1.16621 -0.382499,-1.72432 0.0348,1.26501 0.236246,2.62821 0.627421,4.09495 3.120232,4.55076 6.918498,6.1152 19.670758,6.1152 12.752258,0 17.36477,-4.5506 17.229109,-11.2345 -0.01234,-0.60593 -0.09566,-1.20621 -0.244919,-1.79667 z"
       style="display:inline;opacity:0.19;fill:#191d2a;fill-opacity:1;stroke-width:0.248659"
       id="path84" /><path
       d="m 46.644702,227.90487 a 11.269111,11.987803 0 0 1 -11.04562,9.61016 11.269111,11.987803 0 0 1 -11.164301,-10.35486 12.065298,11.856069 0 0 0 -0.94869,3.09824 12.065298,11.856069 0 0 0 -0.06274,0.92924 12.065298,11.856069 0 0 0 12.065368,11.85559 12.065298,11.856069 0 0 0 11.894526,-9.97437 12.065298,11.856069 0 0 0 0.06123,-0.91866 12.065298,11.856069 0 0 0 -0.79977,-4.24534 z"
       style="display:inline;opacity:1;fill:#191d2a;stroke-width:0.417313"
       id="path121" /><path
       d="m 46.625201,228.2189 a 11.269111,8.5575795 0 0 1 -11.045621,6.8603 11.269111,8.5575795 0 0 1 -11.1643,-7.39189 12.065298,8.4635406 0 0 0 -0.948689,2.21172 12.065298,8.4635406 0 0 0 -0.06274,0.66332 12.065298,8.4635406 0 0 0 12.065368,8.4632 12.065298,8.4635406 0 0 0 11.894526,-7.12027 12.065298,8.4635406 0 0 0 0.06123,-0.65579 12.065298,8.4635406 0 0 0 -0.799771,-3.03059 z"
       style="display:inline;opacity:0.19;fill:#191d2a;stroke-width:0.352589"
       id="path121-2" /></g><g
     inkscape:groupmode="layer"
     id="layer11"
     inkscape:label="brillos"><path
       d="m 132.60883,205.07004 a 29.520168,34.64607 0 0 1 -1.28885,-3.86001 c -19.08774,11.3141 -27.92621,13.94731 -82.038601,16.58061 11.514089,5.53282 6.124528,17.65293 6.124528,17.65293 l 31.358171,3.95186 c 0,0 -3.67479,-3.42511 0.244917,-13.17344 3.283891,-8.1671 35.283265,-14.66968 45.577915,-16.56434 a 9.6154912,13.239276 0 0 1 -0.13457,-2.20804 9.6154912,13.239276 0 0 1 0.15648,-2.37957 z"
       style="display:inline;opacity:0.19;fill:#191d2a;stroke-width:0.321604"
       id="path82" /><path
       d="m 133.7911,199.8109 c -0.74433,0.39829 -1.55643,0.85686 -2.44089,1.38124 -0.0101,0.006 -0.0201,0.0129 -0.0303,0.018 a 29.520168,34.64607 0 0 0 1.28885,3.86 9.6154912,13.239276 0 0 1 0.99631,-3.90552 c 0.0594,-0.45542 0.12161,-0.90666 0.18595,-1.3536 z"
       style="display:inline;opacity:0.19;fill:#191d2a;stroke-width:0.299697"
       id="path80" /><path
       d="m 152.78304,156.75742 a 29.520168,34.64607 0 0 0 -22.90235,33.76444 29.520168,34.64607 0 0 0 1.43929,10.68817 c 0.0101,-0.006 0.0201,-0.0129 0.0302,-0.0179 0.88446,-0.52439 1.69656,-0.98295 2.44089,-1.38125 3.6748,-25.49216 15.40128,-37.25371 18.81051,-42.7535 0.0623,-0.10054 0.123,-0.2008 0.18144,-0.29998 z"
       style="display:inline;opacity:0.19;fill:#191d2a;stroke-width:0.299697"
       id="path78" /><path
       d="M 92.106973,89.847999 A 75.258535,79.413291 67.508067 0 0 13.287866,168.5553 75.258535,79.413291 67.508067 0 0 16.875502,190.6056 75.258535,79.413291 67.508067 0 1 14.673483,173.39981 75.258535,79.413291 67.508067 0 1 93.49257,94.691698 75.258535,79.413291 67.508067 0 1 168.7233,145.58469 75.258535,79.413291 67.508067 0 0 92.106973,89.847999 Z"
       style="display:inline;opacity:0.19;fill:#ffffff;stroke-width:0.378858"
       id="path20"
       inkscape:label="brillo frente" /></g><g
     inkscape:groupmode="layer"
     id="layer13"
     inkscape:label="bigotes"><rect
       style="fill:#191d2a;fill-opacity:1;stroke-width:0.321841;stroke-dasharray:none"
       id="rect123"
       width="13.467861"
       height="2.8548343"
       x="-57.212109"
       y="187.3867"
       transform="matrix(0.90104303,-0.4337297,0.38423222,0.92323648,0,0)" /><rect
       style="fill:#191d2a;fill-opacity:1;stroke-width:0.321987;stroke-dasharray:none"
       id="rect123-0"
       width="13.64601"
       height="2.8201189"
       x="-93.85392"
       y="176.42361"
       transform="matrix(0.79069806,-0.61220632,0.55627934,0.83099536,0,0)" /><rect
       style="fill:#191d2a;fill-opacity:1;stroke-width:0.322027;stroke-dasharray:none"
       id="rect123-0-1"
       width="13.844873"
       height="2.7803056"
       x="-128.88968"
       y="158.79201"
       transform="matrix(0.65213111,-0.7581062,0.70889738,0.70531164,0,0)" /><rect
       style="fill:#191d2a;fill-opacity:1;stroke-width:0.321708;stroke-dasharray:none"
       id="rect123-0-1-5"
       width="13.362811"
       height="2.8748975"
       x="113.6305"
       y="183.81512"
       transform="matrix(0.96201506,-0.27299638,0.23828089,0.97119628,0,0)" /></g><g
     inkscape:label="Capa 1"
     inkscape:groupmode="layer"
     id="layer1"
     style="display:none;opacity:0.672" /></svg>
